<svg width="19" height="18" viewBox="0 0 19 18" fill="none" xmlns="http://www.w3.org/2000/svg">
<path d="M17.0425 9.0877C17.2639 8.89793 17.3746 8.80304 17.4152 8.69013C17.4508 8.59103 17.4508 8.48263 17.4152 8.38352C17.3746 8.27061 17.2639 8.17573 17.0425 7.98595L9.36014 1.40108C8.97902 1.07441 8.78846 0.911071 8.62713 0.907069C8.48692 0.903591 8.35298 0.96519 8.26438 1.07391C8.16242 1.19901 8.16242 1.44999 8.16242 1.95195V5.84745C6.22642 6.18614 4.45452 7.16714 3.13777 8.6401C1.7022 10.2459 0.908102 12.3241 0.906982 14.4781V15.0331C1.85866 13.8867 3.04689 12.9595 4.39028 12.315C5.57467 11.7468 6.855 11.4103 8.16242 11.3216V15.1217C8.16242 15.6237 8.16242 15.8746 8.26438 15.9997C8.35298 16.1085 8.48692 16.1701 8.62713 16.1666C8.78846 16.1626 8.97902 15.9992 9.36014 15.6726L17.0425 9.0877Z" stroke="#A4A7AE" stroke-width="1.81386" stroke-linecap="round" stroke-linejoin="round"/>
</svg>
